<svg xmlns="http://www.w3.org/2000/svg" viewBox="0 0 733.22 327"><defs><style>.cls-1{fill:#ed7768;}</style></defs><g id="Calque_2" data-name="Calque 2"><g id="Calque_2-2" data-name="Calque 2"><path class="cls-1" d="M181,42.5l-11-.58-2-.11h-.07l-.87-.05h.5q1.22,0,2.43,0h.12C173.73,41.85,177.38,42.09,181,42.5Z"/><polygon class="cls-1" points="384.82 0 406 46.12 406 187.12 350 65.19 350 0 384.82 0"/><polygon class="cls-1" points="519.82 0.5 541 46.62 541 187.62 485 65.69 485 0.5 519.82 0.5"/><path class="cls-1" d="M169.93,41.78c-.67,0-1.32,0-2,0h-.07l-.87-.05h.5Q168.72,41.75,169.93,41.78Z"/><path class="cls-1" d="M180.5,326.5q-4.47.25-9,.25c-1.31,0-2.62,0-3.93-.05-1.72,0-3.43-.11-5.14-.2Z"/><polygon class="cls-1" points="733.22 327 676.75 327 526.58 0 583.03 0 733.22 327"/><polygon class="cls-1" points="598.46 327 542 327 406 30.88 391.82 0 448.27 0 598.46 327"/><path class="cls-1" d="M462.24,327H405.78l-71.9-156.57v0L326.79,155,276.16,44.76l-1-2.26H185a119.88,119.88,0,0,0-13.47-.75H171c-.33,0-.62,0-.95,0h-.12q-1.22,0-2.43,0H167l.87.05h-.31c-1.35,0-2.7-.07-4.06-.07H163a123.42,123.42,0,0,0-13,.74A121.51,121.51,0,0,0,42,163.25c0,1.05,0,2.09,0,3.13s.06,2.06.12,3.08a.61.61,0,0,0,0,.14c0,.91.1,1.81.16,2.71,0,.38.06.76.1,1.13,0,.54.08,1.08.14,1.62s.09,1,.15,1.43.11,1,.17,1.53.15,1.21.24,1.8c0,.22,0,.44.09.65.08.63.18,1.26.28,1.89s.17,1.09.27,1.64c.06.37.12.74.2,1.11.09.56.2,1.13.32,1.69.07.41.15.82.25,1.23.17.87.36,1.73.56,2.59s.45,1.91.7,2.86.51,2,.79,3,.55,1.91.85,2.86.53,1.7.81,2.54c.19.56.38,1.12.59,1.68.09.29.19.57.3.85.16.47.33.93.51,1.39s.38,1,.59,1.54c.11.31.23.62.36.92.22.59.46,1.17.71,1.75.14.34.27.67.42,1,.22.53.44,1.05.68,1.57.15.35.31.69.47,1s.37.82.56,1.23c.28.59.56,1.18.85,1.76.39.81.79,1.61,1.21,2.4a121.63,121.63,0,0,0,6.88,11.68c.36.54.72,1.08,1.1,1.61l.44.63c.35.51.71,1,1.09,1.53l.51.71c.47.63.93,1.25,1.41,1.87s1.08,1.41,1.64,2.1,1,1.3,1.59,1.94c.13.17.27.34.41.5.42.51.85,1,1.3,1.51l.33.37c.5.59,1,1.17,1.55,1.74,1.19,1.31,2.41,2.6,3.67,3.85,1.88,1.88,3.82,3.71,5.81,5.46.67.6,1.34,1.18,2,1.74s1.36,1.14,2,1.69,1.35,1.08,2,1.6l.1.08c.69.54,1.38,1.06,2.09,1.57s1.29.94,1.94,1.4c.89.64,1.79,1.25,2.7,1.85q2,1.37,4.08,2.62l.14.08q2.28,1.4,4.63,2.68l1.53.83,1.24.65c.66.34,1.32.68,2,1s1.26.62,1.89.91c.36.18.71.35,1.07.5l1.11.51,1.31.58,1.76.75.39.16q1.15.48,2.34.93c.84.33,1.68.65,2.53.95,3.4,1.23,6.88,2.32,10.41,3.24,1.77.46,3.55.89,5.35,1.27.75.16,1.52.32,2.28.46l.6.12q1.26.25,2.55.45c.91.16,1.83.3,2.75.43.69.11,1.38.2,2.08.28,1,.13,2,.24,3,.34.68.08,1.37.14,2.06.19.25,0,.5.05.76.06.85.07,1.71.13,2.56.18l.49,0c.74,0,1.48.08,2.23.1l1.2,0c.83,0,1.66,0,2.49,0h.5c1.37,0,2.74,0,4.1-.07,1.13,0,2.26.06,3.4.06h.5a120.57,120.57,0,0,0,17.42-1.25h36.5l19.75,43H154.5c-1.28-.07-2.55-.15-3.82-.25A163.38,163.38,0,0,1,2.5,191.89,163.5,163.5,0,0,1,77,24.49,162.47,162.47,0,0,1,154.56,0h157.5L350,82.61,403,198Z"/><path class="cls-1" d="M77.42,249c-1.26-1.25-2.48-2.54-3.67-3.85Q75.55,247.11,77.42,249Z"/><path class="cls-1" d="M100.24,267q-2.07-1.26-4.08-2.62Q98.17,265.73,100.24,267Z"/><path class="cls-1" d="M132.58,280.77c-3.53-.92-7-2-10.41-3.24Q127.27,279.38,132.58,280.77Z"/><path class="cls-1" d="M185,42.5h-8c-2.33-.26-4.67-.46-7-.58-.79,0-1.58-.08-2.37-.1h.31l-.87-.05h.5q1.22,0,2.43,0h.12c.33,0,.62,0,.95,0h.5A119.88,119.88,0,0,1,185,42.5Z"/><path class="cls-1" d="M172.5,326.5c-1.64.09-3.28.16-4.93.2-1.35,0-2.71.05-4.07.05q-4.53,0-9-.25Z"/><path class="cls-1" d="M188.92,283.5a120.57,120.57,0,0,1-17.42,1.25H171c-1.14,0-2.27,0-3.4-.06a119.19,119.19,0,0,0,13.32-1.18Z"/><path class="cls-1" d="M188.92,283.5a120.57,120.57,0,0,1-17.42,1.25H171c-1.14,0-2.27,0-3.4-.06-1.36.05-2.73.07-4.1.07H163c-.83,0-1.66,0-2.49,0l-1.2,0c-.75,0-1.49-.06-2.23-.1l-.49,0c-.85-.05-1.71-.11-2.56-.18-.26,0-.51,0-.76-.06-.69-.05-1.38-.11-2.06-.19-1-.1-2-.21-3-.34l-2.08-.28Z"/><path class="cls-1" d="M185,42.5H150a123.42,123.42,0,0,1,13-.74h.5c1.36,0,2.71,0,4.06.07h.31l-.87-.05h.5q1.22,0,2.43,0h.12c.33,0,.62,0,.95,0h.5A119.88,119.88,0,0,1,185,42.5Z"/></g></g></svg>