<svg width="1440" height="900" viewBox="0 0 1440 900" fill="none" xmlns="http://www.w3.org/2000/svg">
<g clip-path="url(#clip0)">
<path d="M1453.75 -17.0309H-58.3628V978H1453.75V-17.0309Z" fill="#0A1717"/>
<g clip-path="url(#clip1)">
<path d="M1306.75 -80H66.2453C-26.1217 -80 -101 -31.2222 -101 28.9484V837.052C-101 897.222 -26.1217 946 66.2453 946H1306.75C1399.12 946 1474 897.222 1474 837.052V28.9484C1474 -31.2222 1399.12 -80 1306.75 -80Z" fill="url(#paint0_radial)"/>
</g>
<path d="M698.003 799.388C586.352 853.701 572.062 933.231 553.35 1005.12C516.992 1144.78 394.037 1204.54 278.198 1176.73C162.359 1148.91 346.647 958.292 288.863 851.82C209.575 705.737 232.398 576.007 273.564 446.762C314.73 317.517 401.774 420.304 461.012 523.188C527.444 638.603 600.818 592.224 717.471 619.05C824.642 643.685 803.196 748.276 698.003 799.388Z" stroke="#5E847C" stroke-miterlimit="10"/>
<path opacity="0.3" d="M306.528 1128.6C201.548 1108.64 360.938 944.093 311.395 850.578C244.653 725.465 254.367 613.056 289.833 497.234C325.298 381.412 400.455 488.35 458.627 569.897C521.588 658.175 580.923 623.744 677.294 646.226C767.576 667.563 752.374 755.899 665.97 800.222C576.773 845.962 561.261 914.26 542.491 977.942C508.053 1094.99 405.633 1147.44 306.528 1128.6Z" stroke="#5E847C" stroke-miterlimit="10"/>
<path opacity="0.4" d="M334.857 1080.44C240.503 1068.59 375.442 929.739 333.927 849.278C280.002 744.804 276.337 650.047 306.101 547.668C335.866 445.288 397.954 555.426 456.223 616.567C514.491 677.708 561.048 655.071 637.136 673.363C710.548 691.034 701.629 763.406 633.917 800.998C567.097 838.086 550.538 895.212 531.632 950.727C499.483 1045.29 416.976 1090.8 334.857 1080.44Z" stroke="#5E847C" stroke-miterlimit="10"/>
<path opacity="0.6" d="M363.187 1032.35C279.168 1029.13 389.791 915.54 356.458 848.076C315.137 764.434 298.287 687.077 322.37 598.198C346.453 509.319 393.165 622.057 453.838 663.315C504.253 697.668 541.095 686.592 596.978 700.597C653.502 714.796 651 770.796 601.884 801.852C557.422 829.959 540.009 876.241 520.774 923.59C491.494 995.671 428.087 1034.83 363.187 1032.35Z" stroke="#5E847C" stroke-miterlimit="10"/>
<path opacity="0.8" d="M391.516 984.227C318.569 997.689 404.043 901.361 378.99 846.815C350.157 784.103 320.295 724.146 338.639 648.67C356.982 573.195 384.749 691.345 451.433 710.005C490.912 721.023 521.239 718.113 556.801 727.773C596.455 738.558 600.546 777.605 569.851 802.667C547.455 820.939 529.984 857.367 509.915 896.395C498.244 919.145 481.494 938.901 460.962 954.133C440.43 969.364 416.667 979.661 391.516 984.227V984.227Z" stroke="#5E847C" stroke-miterlimit="10" stroke-dasharray="1 3"/>
<path opacity="0.8" d="M537.798 803.481C533.242 815.507 482.729 916.568 419.846 936.101C356.963 955.635 418.081 887.278 401.503 845.574C384.924 803.869 342.265 761.195 354.965 699.162C367.666 637.129 377.827 773.531 449.106 756.714C522.751 739.334 552.089 765.831 537.798 803.481Z" stroke="#5E847C" stroke-miterlimit="10"/>
<path d="M314.013 -56.757C295.766 74.4667 285.625 165.557 297.705 237.347C309.785 309.137 344.087 361.665 414.766 415.687C485.444 469.709 479.2 519.58 507.84 548.366C536.48 577.152 600.236 584.911 669.324 592.708C738.413 600.506 780.917 610.166 804.534 630.378C828.152 650.59 824.778 685.021 811.961 734.096C789.196 821.288 734.612 908.072 764.008 967.584C800.385 1041.2 916.863 1091.28 1053.72 906.21C1155.5 768.488 1233.2 824.159 1219.55 717.318C1205.9 610.476 1023.61 563.496 991.556 412.894C946.298 200.24 943.409 155.18 1024.21 16.9727C1070.98 -63.0224 1140.16 -178.34 1044.36 -357.165C948.548 -535.99 693.155 -469.418 565.042 -391.673C436.929 -313.928 329.001 -164.646 314.013 -56.757Z" stroke="#5E847C" stroke-miterlimit="10"/>
<path opacity="0.3" d="M1044.96 888.267C1136.79 768.003 1209.52 807.613 1191.01 708.201C1187.83 689.696 1179.22 673.014 1166.87 657.321C1132.62 613.871 1075.09 579.945 1030.14 529.162C1004.62 500.435 983.412 466.955 973.755 425.308C943.525 294.841 931.019 230.248 943.002 162.686C948.683 131.398 962.606 99.9939 981.783 59.3562C1018.41 -18.2336 1081.22 -126.685 1006.02 -290.787C991.866 -322.308 972.766 -346.303 950.351 -364.206C852.06 -442.805 678.166 -407.366 583.87 -356.661C468.574 -293.289 364.854 -164.51 344.766 -67.4061C333.132 -30.551 325.918 7.25465 333.345 46.4957C341.217 94.9893 341.237 132.465 341.101 166.256C340.927 198.378 340.287 227.241 346.685 260.159C357.893 325.218 390.702 372.877 455.699 421.526C518.873 469.205 516.411 513.218 544.081 539.249C571.751 565.281 629.399 573.195 691.294 581.361C753.188 589.527 791.833 599.168 813.842 618.216C835.85 637.264 833.756 668.281 823.537 712.371C822.619 716.328 821.643 720.298 820.609 724.281C800.598 799.796 760.828 873.642 785.531 926.015C819.833 999.182 922.429 1048.8 1044.96 888.267Z" stroke="#5E847C" stroke-miterlimit="10"/>
<path opacity="0.4" d="M1036.13 870.325C1118.02 767.402 1185.77 791.086 1162.39 699.103C1158.51 682.383 1150.05 667.156 1137.95 652.86C1103.48 612.222 1051.07 583.029 1008.99 534.691C985.564 507.883 965.825 476.498 955.955 437.703C926.52 322.114 912.501 259.926 914.75 196.69C915.991 167.497 926.384 138.808 939.434 101.643C965.921 25.9925 1022.35 -75.107 967.705 -224.506C957.622 -253.486 943.487 -276.317 926.462 -294.221C848.24 -375.496 687.648 -360.269 602.64 -321.746C500.22 -272.573 400.708 -164.374 375.539 -78.0554C357.35 -41.9955 347.616 -0.465578 365.998 46.4569C386.339 103.059 389.267 142.067 389.519 177.409C389.732 211.355 386.94 241.925 395.55 282.951C405.885 341.298 437.22 384.069 496.516 427.345C552.206 468.681 553.621 506.875 580.07 529.997C606.518 553.118 658.175 561.362 713.011 569.878C767.498 578.219 802.479 588.072 822.897 605.996C842.947 623.453 842.481 651.483 834.803 690.569C834.105 694.157 833.387 697.765 832.573 701.373C816.944 769.633 785.183 836.03 806.725 884.524C839.127 957.225 928.013 1006.32 1036.13 870.325Z" stroke="#5E847C" stroke-miterlimit="10"/>
<path opacity="0.6" d="M1027.29 852.402C1099.27 766.839 1162.04 774.54 1133.79 690.006C1129.4 675.07 1120.89 661.298 1109.04 648.399C1074.3 610.593 1027.04 586.075 987.852 540.2C966.523 515.332 948.276 485.887 938.174 450.118C909.708 349.251 894.022 289.488 886.498 230.674C883.299 203.518 889.93 177.254 897.046 144.084C913.082 69.3071 963.44 -23.2769 929.351 -158.07C923.359 -184.489 914.149 -206.156 902.553 -224.021C844.382 -307.935 697.111 -312.939 621.391 -286.597C531.787 -251.798 436.483 -164.18 406.156 -88.7433C381.627 -53.3818 369.295 -8.34092 398.652 46.4375C431.461 111.089 437.433 151.669 438.015 188.563C438.597 224.331 433.633 256.628 444.472 305.743C453.935 357.359 483.777 395.281 537.411 433.184C585.577 468.099 590.832 500.474 616.156 520.802C641.48 541.131 687.105 549.588 734.826 558.453C782.003 567.046 813.221 577.055 832.05 593.795C850.296 609.992 851.44 634.743 846.185 668.805C845.7 672.005 845.235 675.245 844.653 678.503C833.543 739.567 809.537 798.768 828.036 842.916C858.324 915.327 933.52 963.859 1027.29 852.402Z" stroke="#5E847C" stroke-miterlimit="10"/>
<path opacity="0.8" d="M1018.45 834.459C1080.6 766.277 1138.28 758.013 1105.16 680.889C1100.2 667.757 1091.59 655.459 1080.13 644.034C1045.05 609.119 1003 589.217 966.716 545.805C945.913 521.425 930.16 493.152 920.373 462.629C893.13 376.524 875.523 319.185 858.324 264.775C850.703 239.849 852.894 215.447 854.736 186.565C859.468 111.962 904.609 28.3978 891.074 -91.5754C889.602 -112.794 885.451 -133.742 878.722 -153.919C840.542 -240.528 706.554 -265.745 640.258 -251.663C563.471 -231.159 472.336 -164.122 437.065 -99.3732C405.924 -64.7875 390.993 -16.1387 431.248 46.3987C476.505 119.1 485.541 161.27 486.414 199.639C487.383 237.231 480.267 271.273 493.336 328.496C501.926 373.381 530.275 406.435 578.208 438.945C618.928 467.595 627.964 494.053 652.144 511.569C676.324 529.085 715.958 537.755 756.562 546.989C796.429 555.834 823.886 565.959 841.105 581.555C857.567 596.394 860.204 617.983 857.49 646.983C857.218 649.815 857.005 652.685 856.656 655.556C849.927 709.365 833.736 761.311 849.268 801.27C877.384 873.486 939.182 921.379 1018.45 834.459Z" stroke="#5E847C" stroke-miterlimit="10" stroke-dasharray="1 3"/>
<path opacity="0.8" d="M1009.61 816.633C1061.96 765.87 1114.53 741.584 1076.56 671.889C1070.24 659.605 1061.64 648.638 1051.22 639.573C1015.75 607.567 978.971 592.282 945.581 551.334C927 528.54 912.46 502.73 902.592 475.024C876.803 403.467 857.044 348.708 829.994 298.721C817.933 275.89 814.966 253.35 812.271 228.89C804.011 154.152 845.623 80.0145 852.642 -25.2167C854.754 -44.7321 855.447 -64.3751 854.717 -83.9909C836.684 -173.219 716.017 -218.648 659.067 -216.669C595.078 -210.443 508.247 -163.986 467.818 -109.984C430.2 -76.135 412.671 -23.8976 463.94 46.4181C521.685 127.17 533.591 170.911 534.929 210.889C536.286 250.305 526.998 286.074 542.297 351.385C550.053 389.54 576.87 417.724 619.142 444.861C652.299 467.188 665.213 487.788 688.269 502.472C711.324 517.155 744.928 526.078 778.396 535.661C810.972 544.777 834.628 555.058 850.296 569.451C864.974 583.029 869.279 601.379 868.911 625.316C868.911 627.779 868.911 630.281 868.756 632.784C866.409 679.337 857.916 724.126 870.695 759.817C896.251 831.743 945.018 879.073 1009.61 816.633Z" stroke="#5E847C" stroke-miterlimit="10"/>
<path opacity="0.7" d="M1000.77 798.593C1043.68 765.423 1090.8 724.883 1047.94 662.675C1040.92 652.154 1032.27 642.817 1022.31 635.014C986.398 606.015 954.946 595.249 924.445 556.746C909.262 537.678 896.116 514.207 884.792 487.342C860.806 430.449 838.545 378.328 801.742 332.647C785.241 311.95 776.437 291.524 769.883 271.196C745.994 197.194 816.421 78.8118 830.808 -13.9468C852.022 -151.145 725.46 -171.473 677.876 -181.677C626.782 -189.746 544.081 -163.85 498.61 -120.691C454.497 -87.5795 434.389 -31.7343 496.671 46.3599C566.865 135.161 581.737 180.493 583.483 222.004C585.228 263.514 573.787 300.719 591.239 374.138C598.084 405.562 623.466 428.897 660.036 450.661C685.69 466.625 702.443 481.386 724.374 493.238C746.305 505.09 773.897 514.265 800.23 524.274C825.437 533.643 845.429 544.021 859.468 557.25C872.343 569.393 878.451 584.678 880.312 603.532C880.526 605.627 880.758 607.741 880.855 609.895C882.794 649.194 881.961 686.864 891.947 718.229C914.828 790.077 951.127 836.961 1000.77 798.593Z" stroke="#5E847C" stroke-miterlimit="10"/>
<path opacity="0.8" d="M992.002 780.67C1030.63 763.755 1078.97 691.267 993.475 630.553C957.041 604.677 930.999 598.314 903.387 562.254C866.661 514.304 846.011 430.934 773.568 366.631C646.599 254.107 745.742 187.34 796.255 56.8345C831.313 -33.7322 776.864 -125.191 696.665 -146.664C658.407 -169.029 579.934 -163.715 529.344 -131.34C478.754 -98.9659 456.048 -39.5321 529.344 46.321C611.948 143.192 629.826 190.095 631.939 233.138C634.053 276.181 620.441 315.422 640.18 396.93C659.92 478.438 874.534 491.977 892.955 587.025C915.7 704.263 944.786 801.308 992.002 780.67Z" stroke="#5E847C" stroke-miterlimit="10"/>
<path d="M-23.8088 1525.98C-91.3266 1177.79 141.01 1116.69 234.201 1190.58C327.392 1264.46 376.605 1251.25 467.159 1185.51C583.502 1101.06 579.818 947.662 627.189 877.657C674.56 807.651 743.803 801.114 725.091 890.207C706.884 976.952 746.13 1037.32 807.385 1056.58C885.684 1081.19 964.971 1053.98 1086.39 893.485C1162.91 792.327 1311.42 843.576 1353.98 939.573C1433.35 1118.73 1260.25 1273.21 1062.45 1330.66" stroke="#5E847C" stroke-miterlimit="10"/>
<path d="M680.513 1076.71C671.399 1005.18 652.765 998.406 621.565 992.49C574.66 983.625 667.424 811.434 692.321 890.032C717.219 968.631 686.136 1120.86 680.513 1076.71Z" stroke="#70D3BF" stroke-miterlimit="10"/>
<path d="M686.465 206.932C749.737 117.161 824.623 15.5567 717.102 -128.644C609.582 -272.845 397.159 -129.788 549.53 -24.3632C687.997 71.4214 637.892 275.832 686.465 206.932Z" stroke="#5E847C" stroke-miterlimit="10"/>
<path d="M685.108 116.016C697.712 132.543 754.449 78.9864 713.205 -39.5902C683.382 -125.308 508.829 -86.629 616.02 -0.67891C682.297 52.3731 659.319 82.187 685.108 116.016Z" stroke="#70D3BF" stroke-miterlimit="10"/>
<path d="M807.889 453.512C764.687 394.428 737.753 390.529 710.044 322.929C682.335 255.329 628.372 326.634 665.756 379.356C703.141 432.078 827.9 480.902 807.889 453.512Z" stroke="#70D3BF" stroke-miterlimit="10"/>
<path d="M426.497 877.502C431.888 931.815 504.447 828.504 496.303 801.58C488.159 774.657 461.807 813.839 440.768 792.037C419.73 770.234 423.356 846.039 426.497 877.502Z" stroke="#70D3BF" stroke-miterlimit="10"/>
<path d="M946.55 701.14C960.667 763.212 1024.4 746.666 1001.06 697.474C977.711 648.282 935.575 612.125 927.082 624.772C918.589 637.419 935.168 651.133 946.55 701.14Z" stroke="#70D3BF" stroke-miterlimit="10"/>
<path opacity="0.3" d="M213.938 1101.02C190.902 1014.89 294.835 990.744 271.625 876.221C248.414 761.699 169.476 731.691 210.273 546.135C254.057 347.078 208.334 361.607 87.1436 515.739C55.7116 555.698 2.40707 614.104 -37.518 684.904C-77.443 755.705 -103.93 838.959 -81.7477 928.536C-59.565 1018.11 21.5455 1088.2 93.5037 1122.3C165.462 1156.4 228.306 1154.81 213.938 1101.02Z" stroke="#5E847C" stroke-miterlimit="10"/>
<path opacity="0.3" d="M185.861 1075.3C168.021 994.992 248.298 969.562 233.949 876.416C224.584 815.682 199.395 779.816 185.008 716.872C175.177 673.227 171.764 629.971 181.692 577.035C209.886 426.608 177.659 439.624 83.6533 557.328C57.6313 589.896 14.3711 637.691 -20.5512 695.825C-57.3932 757.063 -79.3433 829.202 -62.9777 906.656C-52.817 954.762 -26.1357 998.135 6.07192 1033.11C32.1715 1061.43 61.5094 1084.32 88.8694 1097.76C146.576 1126.1 196.487 1123.11 185.861 1075.3Z" stroke="#5E847C" stroke-miterlimit="10"/>
<path opacity="0.4" d="M157.803 1049.58C145.335 975.013 202.071 948.244 196.273 876.609C192.221 826.661 177.872 793.608 164.395 731.904C153.75 683.139 148.515 644.48 153.091 607.955C165.811 506.409 146.789 517.524 80.1436 598.916C59.5121 624.132 26.1992 661.24 -3.58458 706.746C-37.3628 758.44 -55.0858 819.562 -44.2077 884.776C-36.5872 930.302 -14.7535 972.743 11.889 1007.29C34.8862 1037.1 60.7337 1061.16 84.235 1073.24C127.805 1095.61 164.803 1091.44 157.803 1049.58Z" stroke="#5E847C" stroke-miterlimit="10"/>
<path opacity="0.6" d="M129.745 1023.86C122.919 954.975 156.523 926.733 158.578 876.765C160.207 837.446 156.639 807.302 143.783 746.918C132.517 692.954 125.285 659.63 124.509 638.816C122.57 587.141 115.589 595.153 76.6533 640.465C61.3736 658.252 37.8723 684.614 13.3821 717.628C-17.6429 759.291 -31.5221 811.267 -25.399 862.857C-20.6483 905.861 -3.54586 947.546 17.7255 981.511C37.4263 1012.97 59.9968 1037.94 79.6006 1048.72C109.094 1064.92 133.293 1059.68 129.745 1023.86Z" stroke="#5E847C" stroke-miterlimit="10"/>
<path opacity="0.8" d="M101.687 998.134C100.989 934.938 112.351 905.453 120.903 876.997C129.454 848.541 135.174 821.094 123.171 761.99C111.169 702.886 106.747 673.751 95.9276 669.774C90.4982 667.835 83.4983 672.102 73.1437 682.092C62.7892 692.082 49.1189 707.793 30.3489 728.646C1.7091 760.38 -8.08311 800.494 -6.60943 841.015C-5.13575 881.536 7.4293 922.484 23.5816 955.654C39.7339 988.824 59.3183 1014.49 74.9858 1024.19C90.6534 1033.88 101.977 1027.93 101.687 998.134Z" stroke="#5E847C" stroke-miterlimit="10" stroke-dasharray="1 3"/>
<path opacity="0.8" d="M53.2684 933.017C92.5341 847.669 114.911 820.628 99.5923 778.109C84.2738 735.59 47.6839 774.443 33.936 834.692C20.1881 894.94 43.2241 954.956 53.2684 933.017Z" stroke="#5E847C" stroke-miterlimit="10"/>
<path d="M1115.67 145.054C1062.89 222.799 1121.03 317.827 1164.58 329.757C1208.13 341.686 1259.03 267.685 1186.49 222.896C1118.37 180.784 1168.2 67.697 1115.67 145.054Z" stroke="#70D3BF" stroke-miterlimit="10"/>
<path d="M-28.5596 517.543C24.0081 268.946 175.661 346.574 232.107 392.604C288.553 438.634 322.971 340.095 258.595 230.422C194.218 120.749 313.954 -31.6373 274.553 -167.924C235.151 -304.21 -774.144 -272.321 -292.697 3.87943C-220.467 45.3512 -37.867 191.608 -193.515 392.721C-418.813 683.838 -348.464 843.789 -219.905 820.725C-59.7589 792.114 -50.7617 622.658 -28.5596 517.543Z" stroke="#5E847C" stroke-miterlimit="10"/>
<path d="M-411.871 -205.438C-430.699 8.7094 -165.34 -61.7033 -110 178.282C-79.9056 308.807 -86.731 480.145 -23.7507 400.79C78.0301 272.612 135.038 300.117 185.919 319.03C236.8 337.942 299.605 364.672 231.487 256.958C75.9553 11.1147 364.06 -41.3166 228.016 -132.291C88.4041 -225.631 140.603 -409.674 34.3821 -376.214C-18.7285 -359.474 -129.002 -331.115 -226.653 -299.768C-324.304 -268.422 -409.35 -234.108 -411.871 -205.438Z" stroke="#5E847C" stroke-miterlimit="10"/>
<path opacity="0.8" d="M-73.5649 31.7536C-51.0525 57.4746 -30.9058 70.5485 -28.5013 96.4441C-25.3019 131.36 -20.9972 170.93 4.3074 156.693C25.5012 144.763 39.7726 80.6352 50.6701 54.4292C61.5676 28.2233 67.6562 -24.014 51.3294 -34.9154C42.9527 -40.5213 -17.759 -72.6823 -26.6786 -73.7103C-44.5567 -75.6501 -141.063 -45.4094 -73.5649 31.7536Z" stroke="#5E847C" stroke-miterlimit="10"/>
<path d="M-56.385 5.15967C-37.867 17.7486 -22.917 22.7144 -17.1386 38.6785C-9.38238 60.2678 -0.0555446 84.631 13.6148 71.4213C25.0552 60.3648 23.4845 17.4576 26.0635 -1.02813C28.6424 -19.5139 23.853 -53.5176 11.7145 -57.7269C5.47075 -59.88 -38.2936 -70.2188 -44.1302 -69.3653C-55.7839 -67.7166 -111.9 -32.5296 -56.385 5.15967Z" stroke="#70D3BF" stroke-miterlimit="10"/>
<path opacity="0.4" d="M-29.2382 365.797C53.5011 261.691 110.102 269.508 152.121 282.892C193.791 296.16 244.304 317.071 190.902 229.375C142.31 149.651 150.066 93.8254 169.864 50.9183C199.55 -13.2291 257.896 -47.6208 192.686 -93.4763C81.5592 -171.629 123.559 -320.873 35.6231 -297.305C7.1384 -289.604 -39.8448 -278.858 -91.0358 -265.745C-121.712 -257.986 -153.958 -249.432 -184.673 -240.354C-193.728 -237.696 -202.648 -235 -211.373 -232.265C-282.459 -209.997 -339.738 -185.42 -341.677 -163.424C-349.434 -74.9324 -299.91 -42.3641 -242.514 -7.11888C-186.786 27.1564 -123.631 64.1085 -98.4041 157.119C-97.5639 160.171 -96.7753 163.275 -96.0385 166.43C-69.4735 277.927 -81.3405 431.399 -29.2382 365.797Z" stroke="#5E847C" stroke-miterlimit="10"/>
<path opacity="0.6" d="M-23.0333 316.528C40.5288 236.494 85.0494 238.938 118.323 246.697C150.706 254.339 189.021 269.372 150.279 201.714C114.794 139.797 122.182 95.2803 138.044 60.714C161.312 10.2807 205.678 -17.7098 157.434 -54.5068C74.8306 -117.471 106.34 -232.09 36.8833 -218.221C13.2269 -213.508 -24.8172 -207.126 -66.0415 -198.455C-91.2491 -193.16 -117.543 -187.457 -142.615 -180.998C-150.041 -179.058 -157.371 -177.118 -164.506 -175.178C-222.93 -159.078 -269.855 -139.933 -271.465 -121.467C-277.631 -51.4226 -240.013 -22.2683 -196.055 9.13622C-153.396 39.8618 -104.57 72.7211 -84.0552 147.052C-83.3766 149.554 -82.6979 152.095 -82.1162 154.675C-58.9639 247.046 -64.1994 368.396 -23.0333 316.528Z" stroke="#5E847C" stroke-miterlimit="10"/>
<path opacity="0.8" d="M-16.8089 267.258C27.6342 211.296 59.7449 208.329 84.526 210.637C107.446 212.751 133.758 221.752 109.734 174.17C87.2794 129.963 94.3182 96.7351 106.243 70.4515C123.074 33.5964 142.155 10.5716 149.29 -30.648C160.13 -93.2047 106.631 -137.237 38.1826 -139.274C19.1024 -139.836 -9.82827 -135.394 -41.0664 -131.166C-60.6702 -128.45 -81.1272 -125.443 -100.576 -121.641C-106.393 -120.516 -112.074 -119.353 -117.64 -118.111C-163.401 -108.121 -199.952 -94.4268 -201.271 -79.5295C-205.808 -27.8935 -180.058 -2.21131 -149.576 25.4107C-119.792 52.3731 -85.6064 81.4693 -69.7256 136.965C-69.1632 138.905 -68.6203 140.845 -68.0968 142.785C-48.7644 216.204 -47.0774 305.374 -16.8089 267.258Z" stroke="#5E847C" stroke-miterlimit="10" stroke-dasharray="1 3"/>
<path opacity="0.8" d="M-10.6039 217.988C14.7201 186.08 33.9167 178.165 50.7477 174.577C63.7781 171.667 78.5731 173.898 69.0136 146.548C59.7449 119.837 66.3764 98.1704 74.3847 80.189C84.7393 56.9121 101.047 15.7313 96.0633 -7.09952C74.8307 -104.591 70.7199 -56.9316 39.4624 -60.2485C21.0302 -62.4515 2.49061 -63.6366 -16.072 -63.7983C-30.1689 -63.7983 -44.7118 -63.4297 -58.5178 -62.2271C-62.6932 -61.865 -66.7782 -61.4512 -70.7726 -60.9856C-103.853 -57.1061 -130.069 -48.901 -131.058 -37.5147C-133.986 -4.38388 -120.16 17.9232 -103.116 41.6851C-86.3238 65.1172 -66.5261 89.9847 -55.3766 126.859C-54.95 128.256 -54.5428 129.652 -54.1356 131.068C-38.3129 185.323 -29.878 242.468 -10.6039 217.988Z" stroke="#5E847C" stroke-miterlimit="10"/>
<path opacity="0.3" d="M134.941 415.105C98.9524 487.303 -14.7729 601.496 -8.95578 548.269C-3.13863 495.042 19.5289 488.816 35.8363 425.716C52.1437 362.616 164.027 357.01 134.941 415.105Z" stroke="#5E847C" stroke-miterlimit="10"/>
<path opacity="0.1" d="M2016.29 -275.327C1844.25 -226.834 1697.7 -412.564 1605.81 -287.49C1566.54 -234.03 1430.98 -199.542 1328.52 40.7346C1216.54 303.706 1602.49 129.032 1861.69 151.669C2120.88 174.305 2207.46 -329.311 2016.29 -275.327Z" stroke="#5E847C" stroke-miterlimit="10"/>
<path opacity="0.8" d="M1991.1 -255.018C1834.46 -212.848 1702.18 -377.533 1615.87 -266.87C1578.16 -218.377 1454.06 -185.595 1364.14 34.1007C1265.64 273.931 1611.59 110.43 1847.61 131.088C2083.63 151.746 2166.14 -301.65 1991.1 -255.018Z" stroke="#5E847C" stroke-miterlimit="10"/>
<path opacity="0.8" d="M1965.91 -234.709C1824.55 -199.348 1706.33 -342.52 1625.92 -246.231C1589.71 -202.878 1477.13 -171.609 1399.69 27.4668C1314.72 244.194 1620.74 91.8663 1833.53 110.449C2046.32 129.032 2124.7 -274.454 1965.91 -234.709Z" stroke="#5E847C" stroke-miterlimit="10"/>
<path opacity="0.8" d="M1940.72 -214.439C1814.68 -185.653 1710.34 -307.547 1635.96 -225.612C1601.19 -187.282 1500.58 -157.527 1435.23 20.7359C1364.3 214.575 1629.79 73.2448 1819.43 89.8102C2009.07 106.376 2083.34 -247.007 1940.72 -214.439Z" stroke="#5E847C" stroke-miterlimit="10"/>
<path opacity="0.1" d="M32.8696 1565.72C-167.997 1287.1 70.9525 1194.4 46.7726 1133.66C28.2934 1086.84 -124.775 1128.93 -126.831 999.279C-128.77 879.674 -121.537 800.319 -255.041 854.167C-388.544 908.014 -405.569 1030.53 -530.754 858.958C-601.937 761.389 -1022.4 1253.81 -702.05 1382.69C-381.699 1511.57 131.664 1702.77 32.8696 1565.72Z" stroke="#5E847C" stroke-miterlimit="10"/>
<path opacity="0.3" d="M-5.52373 1531.02C-176.606 1275.27 29.9997 1195.78 9.48451 1136.69C-6.57083 1090.45 -139.047 1122.57 -144.534 1009.37C-149.634 903.921 -149.867 836.108 -268.827 884.097C-391.182 933.444 -404.561 1037.18 -519.527 888.229C-586.541 801.386 -969.135 1265.22 -675.582 1383.41C-382.029 1501.6 90.0909 1674 -5.52373 1531.02Z" stroke="#5E847C" stroke-miterlimit="10"/>
<path d="M1179.02 -196.826C1096.38 -75.4755 987.775 58.9682 985.021 175.081C982.268 291.194 998.769 402.206 1065.12 478.477C1208.92 643.801 1566.5 625.044 1453.5 373.905C1340.49 122.766 1221.2 204.624 1336.32 -29.7751C1451.44 -264.174 1233.72 -277.112 1179.02 -196.826Z" stroke="#5E847C" stroke-miterlimit="10"/>
<path opacity="0.3" d="M1176.39 -156.848C1100.16 -45.7198 1001.31 72.624 998.827 177.39C996.345 282.155 1011.24 382.246 1071.08 451.049C1200.8 600.215 1523.38 583.281 1421.37 356.739C1319.35 130.196 1206.33 204.391 1310.18 -7.04127C1414.04 -218.473 1225.91 -229.142 1176.39 -156.848Z" stroke="#5E847C" stroke-miterlimit="10"/>
<path opacity="0.4" d="M1173.73 -116.889C1103.92 -16.0223 1014.73 86.2992 1012.63 179.679C1010.54 273.058 1023.69 362.306 1077.03 423.64C1192.69 556.61 1480.24 541.519 1389.22 339.552C1298.2 137.586 1191.43 204.178 1283.95 15.6149C1376.46 -172.948 1218.08 -181.192 1173.73 -116.889Z" stroke="#5E847C" stroke-miterlimit="10"/>
<path opacity="0.6" d="M1171.07 -76.9303C1107.76 13.7721 1028.36 99.955 1026.44 181.967C1024.52 263.98 1036.13 342.365 1083 396.232C1184.57 513.004 1437.11 499.756 1357.24 322.386C1277.37 145.015 1176.6 203.945 1257.88 38.4069C1339.17 -127.131 1210.26 -133.222 1171.07 -76.9303Z" stroke="#5E847C" stroke-miterlimit="10"/>
<path opacity="0.8" d="M1168.46 -36.8552C1111.58 43.6054 1041.93 113.708 1040.26 184.276C1038.6 254.844 1048.64 322.444 1088.99 368.842C1176.48 469.418 1394.03 458.071 1325.23 305.238C1256.43 152.406 1161.73 203.673 1231.75 61.1213C1301.77 -81.4305 1202.45 -85.3488 1168.46 -36.8552Z" stroke="#5E847C" stroke-miterlimit="10" stroke-dasharray="1 3"/>
<path opacity="0.8" d="M1165.78 3.00659C1115.36 73.2642 1055.43 127.286 1054.03 186.565C1052.64 245.843 1061.05 302.484 1094.91 341.414C1168.32 425.813 1350.86 416.23 1293.12 288.033C1235.37 159.835 1146.85 203.499 1205.61 83.8552C1264.36 -35.7883 1194.63 -37.3207 1165.78 3.00659Z" stroke="#5E847C" stroke-miterlimit="10"/>
<path d="M1163.12 42.9653C1119.15 103.097 1068.96 140.942 1067.84 188.854C1066.71 236.765 1073.5 282.543 1100.8 314.006C1160.12 382.207 1307.64 374.468 1260.99 270.866C1214.33 167.264 1131.98 203.266 1179.47 106.686C1226.96 10.1061 1186.8 10.6492 1163.12 42.9653Z" stroke="#5E847C" stroke-miterlimit="10"/>
<path opacity="0.1" d="M1522.78 1311.27C1304.19 1291.21 1442.66 1073.45 1390.09 954.064C1321.78 798.884 1221.39 829.183 1237.56 725.174C1253.73 621.165 1144.33 610.341 1356.64 615.83C1568.95 621.32 1467.71 365.215 1483.74 281.845C1528.58 48.6294 2315.77 -30.2212 2156.6 646.342C1997.42 1322.91 1822.26 1527.1 1699.21 1524.64C1576.16 1522.18 1833.16 1339.7 1522.78 1311.27Z" stroke="#5E847C" stroke-miterlimit="10"/>
<path opacity="0.3" d="M1541.04 1277.96C1350.05 1255.11 1461.54 1055.73 1410.37 942.968C1345.26 798.418 1251.37 826.254 1266.45 728.956C1281.54 631.658 1179.2 621.514 1377.89 626.635C1576.59 631.755 1484.87 392.449 1500.21 314.51C1541.14 103.369 2275.42 22.0743 2126.35 655.168C1977.27 1288.26 1819.72 1467.18 1707.28 1471.18C1593.11 1475.25 1806.4 1309.74 1541.04 1277.96Z" stroke="#5E847C" stroke-miterlimit="10"/>
<path opacity="0.4" d="M1559.31 1244.68C1396.1 1218.78 1480 1038.11 1430.63 931.873C1368.43 798.031 1281.33 823.247 1295.37 732.719C1309.41 642.191 1214.12 632.648 1399.14 637.42C1584.17 642.191 1502.24 419.722 1516.67 347.214C1554.33 158.225 2235.07 74.3504 2096.29 663.994C1957.51 1253.64 1817.05 1407.44 1715.27 1417.68C1609.71 1428.31 1779.99 1279.67 1559.31 1244.68Z" stroke="#5E847C" stroke-miterlimit="10"/>
<path opacity="0.8" d="M1577.6 1211.39C1442.48 1182.18 1498.71 1020.44 1450.92 920.778C1391.83 797.623 1311.31 820.435 1324.28 736.502C1337.25 652.569 1249.02 643.801 1420.42 648.243C1591.81 652.685 1519.42 446.956 1533.11 379.841C1566.99 213.023 2194.74 126.627 2066.18 672.742C1937.62 1218.86 1814.16 1347.91 1723.37 1364.16C1626.21 1381.56 1754.15 1249.56 1577.6 1211.39Z" stroke="#5E847C" stroke-miterlimit="10" stroke-dasharray="1 3"/>
<path opacity="0.8" d="M1595.82 1178.08C1489.43 1145.15 1517.48 1002.85 1471.16 909.74C1415.22 797.235 1341.24 817.583 1353.17 740.304C1365.09 663.024 1283.91 654.955 1441.67 659.067C1599.43 663.179 1536.68 474.268 1549.58 412.545C1579.69 267.84 2154.39 178.961 2036.06 681.723C1917.74 1184.49 1811.33 1288.86 1731.44 1310.72C1642.53 1335.07 1729.42 1219.46 1595.82 1178.08Z" stroke="#5E847C" stroke-miterlimit="10"/>
<path opacity="0.8" d="M1614.09 1144.8C1532.26 1122.28 1536.2 985.061 1491.42 898.587C1438.68 796.711 1371.2 814.615 1382.08 744.009C1392.96 673.402 1318.79 666.07 1462.92 669.794C1607.05 673.518 1554.05 501.463 1566.04 445.152C1592.33 322.541 2114.05 231.179 2005.93 690.549C1897.81 1149.92 1808.34 1229.97 1739.49 1257.15C1658.76 1289 1697.41 1205.98 1614.09 1144.8Z" stroke="#5E847C" stroke-miterlimit="10"/>
<path opacity="0.7" d="M1632.35 1111.47C1577.89 1088.49 1555.01 967.351 1511.67 887.492C1462.16 796.207 1401.03 811.686 1410.95 747.83C1420.88 683.973 1353.65 677.262 1484.15 680.637C1614.65 684.012 1571.16 528.755 1582.48 477.876C1604.86 377.358 2073.68 283.532 1975.8 699.375C1877.92 1115.22 1805.45 1171.82 1747.53 1203.71C1675.07 1243.51 1670.26 1179.25 1632.35 1111.47Z" stroke="#5E847C" stroke-miterlimit="10"/>
<path opacity="0.8" d="M1650.62 1078.23C1623.47 1054.7 1573.85 949.602 1531.95 876.493C1485.76 795.683 1430.98 808.874 1439.92 751.535C1448.86 694.196 1388.62 688.338 1505.46 691.403C1622.31 694.468 1588.34 555.931 1598.92 510.483C1617.27 432.02 2033.27 335.751 1945.67 708.143C1858.06 1080.53 1802.89 1114.09 1755.64 1150.13C1691.82 1198.76 1643.1 1152.5 1650.62 1078.23Z" stroke="#5E847C" stroke-miterlimit="10"/>
<path opacity="0.3" d="M1062.41 1330.66C1242.62 1214.78 1398.06 1136.69 1322.96 962.113C1247.86 787.536 1114.96 883.495 1026.17 1013.71C932.163 1151.59 821.229 1096.19 777.349 1080.83C708.9 1056.89 616.194 1138.05 718.363 1312.88C820.531 1487.71 993.456 1375.01 1062.41 1330.66Z" stroke="#5E847C" stroke-miterlimit="10"/>
<path opacity="0.1" d="M1453.5 262.874C1494.45 219.598 1524.62 195.701 1482.58 203.052C1451.56 208.464 1444.23 207.048 1412.12 204.565C1365.02 200.919 1412.33 306.305 1453.5 262.874Z" stroke="#5E847C" stroke-miterlimit="10"/>
<path d="M1127.85 249.083C1128.22 250.15 1152.03 303.745 1177.18 293.386C1202.33 283.028 1198.96 255.949 1181.06 246.289C1163.16 236.63 1113.31 207.378 1127.85 249.083Z" stroke="#70D3BF" stroke-linecap="round" stroke-linejoin="round" stroke-dasharray="1 3"/>
<path d="M677.255 334.781C672.504 336.72 671.632 354.372 681.133 366.476C689.296 376.834 704.072 381.819 707.31 378.114C713.205 371.384 685.418 331.58 677.255 334.781Z" stroke="#70D3BF" stroke-linecap="round" stroke-linejoin="round" stroke-dasharray="1 3"/>
<path d="M65.6589 816.322C51.0773 826.195 55.634 853.914 61.7808 855.602C69.4207 857.736 90.2461 822.626 83.1104 814.382C79.8334 810.639 70.8362 812.753 65.6589 816.322Z" stroke="#70D3BF" stroke-miterlimit="10"/>
<path d="M969.257 699.938C972.359 715.009 970.827 719.723 975.074 722.73C979.98 726.221 989.132 725.018 992.525 720.305C998.342 712.177 986.282 694.623 977.013 685.874C975.481 684.439 967.977 677.359 965.378 679.085C963.246 680.521 966.484 686.476 969.257 699.938Z" stroke="#70D3BF" stroke-linecap="round" stroke-linejoin="round" stroke-dasharray="1 3"/>
<path d="M672.407 21.2014C670.061 24.7511 673.454 28.8052 688.249 58.3669C696.529 74.9323 697.557 77.7644 699.884 77.7644C707.756 77.6286 723.152 44.168 707.97 27.0206C697.848 15.5179 676.848 14.4899 672.407 21.2014Z" stroke="#70D3BF" stroke-linecap="round" stroke-linejoin="round" stroke-dasharray="1 3"/>
<path d="M444.743 829.183C447.846 843.983 438.306 861.615 445.713 863.128C456.707 865.378 479.297 828.446 473.092 819.232C468.846 812.947 441.583 814.15 444.743 829.183Z" stroke="#70D3BF" stroke-linecap="round" stroke-linejoin="round" stroke-dasharray="1 3"/>
<path opacity="0.85" d="M1440 0H-26V978H1440V0Z" fill="#0A1717" fill-opacity="0.75"/>
</g>
<defs>
<radialGradient id="paint0_radial" cx="0" cy="0" r="1" gradientUnits="userSpaceOnUse" gradientTransform="translate(1423.09 1024.64) scale(787.5 513)">
<stop stop-color="#00D3BF"/>
<stop offset="0.07" stop-color="#00B5A4"/>
<stop offset="0.18" stop-color="#00897D"/>
<stop offset="0.29" stop-color="#00645B"/>
<stop offset="0.41" stop-color="#004540"/>
<stop offset="0.54" stop-color="#002E2B"/>
<stop offset="0.67" stop-color="#001D1C"/>
<stop offset="0.82" stop-color="#001313"/>
<stop offset="1" stop-color="#001010"/>
</radialGradient>
<clipPath id="clip0">
<rect width="1466" height="978" fill="white" transform="translate(-26)"/>
</clipPath>
<clipPath id="clip1">
<rect width="1491" height="938" fill="white" transform="translate(2)"/>
</clipPath>
</defs>
</svg>
